<svg xmlns="http://www.w3.org/2000/svg" width="93.363" height="21.744" viewBox="0 0 93.363 21.744">
  <g id="legal-logos" transform="translate(-111.033 -4851)">
    <path id="logo-mls" d="M18.754,20.426l.387-1.383h0l.5,1.383h.277l.443-1.715h-.221l-.387,1.383h0l-.5-1.383h-.277l-.443,1.715Zm-.609,0,.443-1.715h-.221l-.443,1.715Zm5.366,0a.825.825,0,0,0,.83-.5.323.323,0,0,0-.277-.443l-.443-.111c-.111,0-.166-.055-.166-.221.055-.277.332-.277.5-.277.221,0,.387.055.332.332h.221c.055-.166.055-.553-.553-.553a.8.8,0,0,0-.774.553.3.3,0,0,0,.277.387l.332.055c.277.055.332.111.277.277-.055.221-.387.277-.553.277-.221,0-.443-.111-.387-.387H22.9a.433.433,0,0,0,.055.443C23.069,20.37,23.18,20.426,23.512,20.426Zm-6.694,0h.221l.387-1.494h.609l.055-.221H16.652l-.055.221h.609Zm-2.047-1.715H14.55l-.443,1.715h.221ZM13.83,20.2h-.885l.387-1.494h-.221l-.443,1.715h1.106Zm1.051.055a.609.609,0,0,0,.5.166.825.825,0,0,0,.83-.5.323.323,0,0,0-.277-.443l-.5-.111c-.111,0-.166-.055-.166-.221.055-.277.332-.277.5-.277.221,0,.387.055.332.332h.221c.055-.166.055-.553-.553-.553a.8.8,0,0,0-.775.553.3.3,0,0,0,.277.387l.332.055c.277.055.332.111.277.277-.055.221-.387.277-.553.277-.221,0-.443-.111-.387-.387h-.221C14.771,20.038,14.771,20.149,14.882,20.26Zm16.043.166a1.081,1.081,0,0,0,.94-.664h-.221a.683.683,0,0,1-.609.443c-.443,0-.5-.332-.387-.719a.808.808,0,0,1,.775-.664c.166,0,.387.055.387.332h.221c.055-.277-.111-.553-.553-.553a1.117,1.117,0,0,0-1.051.885C30.206,20.2,30.538,20.426,30.925,20.426Zm2.434-.221H32.308l.166-.553h.94l.055-.221h-.94l.166-.5h1.051l.055-.221H32.529l-.443,1.715h1.272Zm-3.541.221.443-1.715H30.04L29.6,20.426ZM25.891,20.2H24.839l.166-.553h.94L26,19.43h-.94l.166-.5h1.051l.055-.221H25.061l-.443,1.715h1.272Zm2.766.221,1.106-1.715h-.277L28.6,20.149h0l-.111-1.438h-.277l.166,1.715Zm-2.213,0,.221-.719h.553c.277,0,.277.166.221.277,0,.055-.055.332-.055.443h.277V20.37c-.055-.055-.055-.055-.055-.166l.055-.332a.275.275,0,0,0-.111-.332.6.6,0,0,0,.332-.387c.111-.387-.166-.443-.443-.443h-.83l-.443,1.715Zm.387-1.549h.609c.111,0,.332,0,.221.277-.055.277-.277.277-.443.277h-.553Zm2.158,3.264c-2.379,0-4.315,1-4.868,2.987-.94,3.6,4.7,2.6,4.37,4.038-.111.443-.664.719-1.438.719a1.441,1.441,0,0,1-.83-.221.822.822,0,0,1-.332-.719H22.958c-.443,1.715.83,3.153,3.319,3.153,2.6,0,4.7-1.051,5.256-3.264.94-3.43-4.758-2.545-4.37-3.983.055-.332.443-.553,1.106-.553a1.767,1.767,0,0,1,.775.166.642.642,0,0,1,.277.664h2.932C32.474,23.524,31.589,22.141,28.989,22.141ZM1.438,20.426H1.66L2.1,18.711H1.826L.94,20.149h0L.83,18.711H.443L0,20.426H.221L.5,19.375a2.488,2.488,0,0,1,.111-.443h0L.719,20.37H.94l.885-1.438h0a1.145,1.145,0,0,1-.111.443Zm10.124,1.936L8.685,26.843,8.8,22.362h-4.2L1.66,31.877H4.426l1.715-5.09-.166,5.09H8.132l3.264-5.09-1.715,5.09H12.5l2.932-9.515Zm9.958-3.707a1.126,1.126,0,0,0-1.051.885.838.838,0,0,0,.055.719c.055.111.166.166.5.166a1.021,1.021,0,0,0,.664-.277v.221h.166l.277-.885h-.775l-.055.221h.553a.643.643,0,0,1-.332.443.6.6,0,0,1-.387.111c-.443,0-.5-.332-.387-.719a.808.808,0,0,1,.775-.664c.166,0,.443.055.443.332h.166C22.184,18.821,21.852,18.655,21.52,18.655ZM11.728,20.2H10.677l.166-.553h.94l.055-.221H10.9l.166-.5h1.051l.055-.221H10.9l-.443,1.715h1.272ZM33.138,31.656h.221v.775h.111v-.775h.277v-.111h-.609Zm.885-1.051a1.383,1.383,0,1,0,0,2.766h0a1.383,1.383,0,1,0,0-2.766Zm0,2.545h0a1.162,1.162,0,1,1,1.162-1.162A1.162,1.162,0,0,1,34.023,33.15Zm.332-.885-.221-.719h-.221v.885h.111v-.775h0l.277.775h.111l.277-.775h0v.775h.166v-.885h-.221ZM20.3,22.417h-3.1l-2.932,9.515h6.694l.885-2.987h-3.6ZM7.634,20.426l.221-.719h.553a.674.674,0,0,0,.664-.5c.055-.277-.055-.5-.387-.5H7.911l-.443,1.715Zm.387-1.549h.5c.221,0,.332.055.277.277a.421.421,0,0,1-.443.332h-.5ZM6.971,20.426l.443-1.715H7.192l-.443,1.715Zm3.153,0,.055-.221H9.294l.387-1.494H9.46l-.443,1.715Zm-4.481,0h.221l.387-1.494H6.86l.055-.221H5.477l-.055.221H6.03Zm-.719,0,.055-.221H4.094l.387-1.494H4.26l-.443,1.715Zm-2.213,0a.853.853,0,0,0,.885-.664l.332-1.106H3.651l-.277,1.051a.563.563,0,0,1-.609.443c-.221,0-.443-.111-.332-.5l.332-.94H2.545l-.332,1.106C2.1,20.149,2.268,20.426,2.711,20.426Z" transform="translate(168.99 4836.12)" fill="#a7a7a7"/>
    <path id="logo-equal-housing-opportunity" d="M2.614,19.065H1.7v.341h.835v.3H1.7v.417h.947v.3H1.364V18.762h1.25v.3Zm1.136.91.151.151a.341.341,0,0,1-.192.038c-.192,0-.455-.114-.455-.568s.265-.568.455-.568.455.114.455.568a.756.756,0,0,1-.076.341L3.9,19.786Zm.758.379-.192-.192a.889.889,0,0,0,.192-.606c0-.8-.568-.871-.8-.871a.78.78,0,0,0-.8.871c0,.8.568.871.8.871a.635.635,0,0,0,.417-.112l.192.192.192-.151Zm1.667-.492c0,.455-.265.644-.682.644a.766.766,0,0,1-.531-.19.681.681,0,0,1-.114-.417V18.8H5.19v1.1a.309.309,0,0,0,.3.341c.227,0,.341-.114.341-.3v-1.1h.341V19.86Zm.91-.718h0l.227.644H6.9Zm-.3.947h.606l.114.341H7.88l-.606-1.666H6.857l-.606,1.667H6.63Zm1.743.038h.833v.3H8.182V18.764h.341Zm2.159-.455v.758h-.341V18.764h.339v.641h.644v-.644h.341v1.667h-.341v-.758ZM12.35,19.6c0-.454.265-.568.455-.568s.455.114.455.568-.265.568-.455.568c-.191.035-.456-.078-.456-.569Zm-.341,0c0,.8.568.872.8.872A.781.781,0,0,0,13.6,19.6c0-.8-.568-.871-.8-.871s-.8.074-.8.871Zm3.257.265c0,.455-.265.644-.682.644a.766.766,0,0,1-.53-.192.683.683,0,0,1-.114-.417V18.8h.341v1.1a.309.309,0,0,0,.3.341c.227,0,.341-.114.341-.3v-1.1h.341V19.86Zm.644.076c0,.076.038.265.341.265.151,0,.341-.038.341-.227,0-.114-.114-.151-.3-.192l-.192-.038c-.265-.076-.53-.114-.53-.492,0-.192.114-.53.644-.53s.644.341.644.53h-.341c0-.076-.038-.265-.341-.265-.151,0-.3.038-.3.192,0,.114.114.151.192.192l.417.114c.227.038.455.151.455.455,0,.492-.53.53-.644.53-.606,0-.718-.341-.718-.568l.341.038Zm1.7.492h-.341V18.764h.341Zm1.4-1.667h.3v1.667h-.341L18.3,19.216h0v1.212h-.341V18.762h.379l.681,1.174h0V18.762Zm1.477.758h.718v.91h-.227l-.038-.227a.6.6,0,0,1-.53.265.771.771,0,0,1-.758-.872.8.8,0,0,1,.833-.871c.53,0,.718.341.718.568h-.379a.353.353,0,0,0-.379-.265c-.265,0-.492.192-.492.606,0,.455.265.568.492.568a.436.436,0,0,0,.417-.379h-.379v-.3ZM1.667,22.133c0-.455.265-.568.455-.568s.455.114.455.568-.265.568-.455.568C1.93,22.739,1.667,22.625,1.667,22.133Zm-.379,0c0,.8.568.871.8.871a.877.877,0,0,0,.038-1.743.823.823,0,0,0-.833.871ZM3.864,22.1V21.6h.3c.227,0,.3.075.3.227,0,.076,0,.265-.265.265Zm0,.3H4.28a.5.5,0,0,0,.53-.53.479.479,0,0,0-.53-.53H3.522V23h.341Zm1.894-.3V21.6h.265c.227,0,.3.075.3.227,0,.076,0,.265-.265.265Zm0,.3h.417a.5.5,0,0,0,.532-.53.479.479,0,0,0-.53-.53H5.416V23h.341V22.4Zm1.82-.265c0-.455.265-.568.455-.568s.455.114.455.568-.265.568-.455.568c-.191.038-.456-.076-.456-.568Zm-.341,0c0,.8.568.871.8.871a.875.875,0,1,0-.8-.871Zm2.539-.076V21.6h.455a.2.2,0,0,1,.227.227c0,.151-.076.227-.265.227Zm-.341.91h.337v-.645h.379c.265,0,.265.076.265.3a.748.748,0,0,0,.038.341h.379v-.038c-.076-.038-.076-.076-.076-.341,0-.3-.076-.379-.227-.417a.427.427,0,0,0,.266-.419.479.479,0,0,0-.53-.492H9.432v1.7Zm2.69,0h-.341V21.6h-.495v-.3h1.364v.3h-.53ZM14.51,22.4c0,.455-.265.644-.682.644a.766.766,0,0,1-.53-.192.681.681,0,0,1-.114-.417v-1.1h.341V22.4a.309.309,0,0,0,.3.341c.227,0,.341-.114.341-.3v-1.1h.341V22.4Zm1.667-1.1h.341v1.667h-.341l-.684-1.215h0v1.212h-.341V21.3h.379l.682,1.174h0L16.174,21.3ZM17.5,22.968h-.341V21.3H17.5Zm1.364,0h-.344V21.6H18.03v-.3h1.364v.3H18.9v1.364Zm1.82,0h-.341v-.645l-.573-1.061h.417l.341.718.341-.718h.379l-.569,1.061v.644ZM11.288,1.3,0,6.868V9.482H1.25v7.841H21.212V9.482h1.515V6.868Zm7.5,13.636H3.712V7.777l7.576-3.863,7.5,3.863Zm-4.053-4.621H7.727V7.776H14.7v2.539h.038Zm0,3.636H7.727V11.413H14.7v2.539Z" transform="translate(111.033 4849.7)" fill="#a7a7a7"/>
    <path id="logo-realtor" d="M22.341,0H4.5V17.841H22.341ZM14,2.137h2a3.376,3.376,0,0,1,3.154,3.392A3.339,3.339,0,0,1,16,8.852H14ZM12.064,15.6H7.01V2.137h5.02V15.6ZM14,15.6V8.887L20.984,15.6Zm8.513,3.257h.136l.1.239h.1l-.136-.239a.144.144,0,0,0,.136-.136c.034-.1-.034-.17-.2-.17h-.2v.575h.068v-.271Zm.034-.271h.1c.1,0,.17.034.17.1s-.034.1-.17.1h-.1ZM6.332,19.706a.8.8,0,0,0-.373-.712,1.065,1.065,0,0,0-.678-.136H4.534V21.64h.305V19.13h.407a.867.867,0,0,1,.611.136.616.616,0,0,1,.2.475.537.537,0,0,1-.611.543H5.178l.848,1.356h.339l-.678-1.085A.8.8,0,0,0,6.332,19.706Zm11.735-.882a1.3,1.3,0,0,0-.984.407,1.488,1.488,0,0,0-.441,1.017,1.428,1.428,0,0,0,1.425,1.493,1.35,1.35,0,0,0,1.086-.474,1.566,1.566,0,0,0,.373-1.017,1.29,1.29,0,0,0-.441-1.017,1.306,1.306,0,0,0-1.017-.408Zm.068,2.645a1.188,1.188,0,0,1-1.187-1.221,1.245,1.245,0,0,1,.441-.916,1.065,1.065,0,0,1,.712-.239,1.188,1.188,0,0,1,.034,2.374Zm4.886-2.985a.463.463,0,0,0-.373-.136.565.565,0,0,0-.373.136.463.463,0,0,0-.136.373.548.548,0,0,1,.136-.339.452.452,0,0,1,.339-.136.486.486,0,0,1,.339.136.357.357,0,0,1,.136.339.548.548,0,0,1-.136.339.518.518,0,0,1-.339.136.548.548,0,0,1-.339-.136.452.452,0,0,1-.136-.339.565.565,0,0,0,.136.373.463.463,0,0,0,.373.136.565.565,0,0,0,.373-.136.581.581,0,0,0,0-.746Zm-12.414.373L9.52,21.64h.339l.339-.882h1.221l.339.882h.305l-1.085-2.781Zm-.339,1.662.507-1.424.543,1.424ZM7.35,21.64H8.809v-.271H7.654V20.351H8.808v-.239H7.654V19.13H8.808v-.306H7.349Zm7.36-2.51h.543v2.51h.271V19.13h.543v-.306H14.678v.305Zm-1.56-.271h-.239V21.64h1.255v-.271H13.149Zm9.124.848a.8.8,0,0,0-.373-.712,1.065,1.065,0,0,0-.678-.136h-.748V21.64h.305V19.13h.407a.867.867,0,0,1,.611.136.616.616,0,0,1,.2.475.537.537,0,0,1-.611.543h-.239L22,21.606h.339l-.678-1.085c.308,0,.613-.374.613-.815Z" transform="translate(137.667 4851)" fill="#a7a7a7"/>
  </g>
</svg>
