<svg xmlns="http://www.w3.org/2000/svg" width="15.682" height="12.787" viewBox="0 0 15.682 12.787">
  <g id="logo-twitter" transform="translate(-0.2 -4.696)">
    <path id="Path_191_1_" d="M5.081,17.482a9.139,9.139,0,0,0,9.2-9.069V7.878a7.335,7.335,0,0,0,1.606-1.669,6.516,6.516,0,0,1-1.858.5,3.353,3.353,0,0,0,1.417-1.795,6.735,6.735,0,0,1-2.047.787,3.232,3.232,0,0,0-4.566-.126A3.14,3.14,0,0,0,7.821,7.941a2.684,2.684,0,0,0,.094.724,9.088,9.088,0,0,1-6.676-3.4A3.245,3.245,0,0,0,2.247,9.578,2.959,2.959,0,0,1,.8,9.169V9.2a3.238,3.238,0,0,0,2.582,3.181,3.964,3.964,0,0,1-.85.126,3.858,3.858,0,0,1-.6-.063A3.175,3.175,0,0,0,4.955,14.68a6.554,6.554,0,0,1-4,1.386A6.068,6.068,0,0,1,.2,16.034a8.792,8.792,0,0,0,4.881,1.449" transform="translate(0 0)" fill="#fff"/>
  </g>
</svg>
