<svg xmlns="http://www.w3.org/2000/svg" width="16" height="16.012" viewBox="0 0 16 16.012">
  <path id="logo-instagram" d="M7.839,3.834a4.089,4.089,0,1,0,4.089,4.089A4.076,4.076,0,0,0,7.839,3.834m0,6.756a2.667,2.667,0,1,1,2.667-2.667A2.672,2.672,0,0,1,7.839,10.59m5.223-6.932A.958.958,0,1,1,12.1,2.7a.961.961,0,0,1,.958.958m2.715.974a4.758,4.758,0,0,0-1.294-3.354A4.774,4.774,0,0,0,11.129-.015c-1.326-.08-5.271-.08-6.6,0A4.758,4.758,0,0,0,1.179,1.279,4.731,4.731,0,0,0-.115,4.633c-.08,1.326-.08,5.271,0,6.6a4.758,4.758,0,0,0,1.294,3.354,4.8,4.8,0,0,0,3.354,1.294c1.326.08,5.271.08,6.6,0a4.758,4.758,0,0,0,3.354-1.294,4.774,4.774,0,0,0,1.294-3.354c.064-1.326.064-5.287,0-6.6m-1.709,8a2.676,2.676,0,0,1-1.517,1.517c-1.054.415-3.546.319-4.712.319s-3.658.1-4.712-.319A2.676,2.676,0,0,1,1.61,12.635c-.415-1.054-.319-3.546-.319-4.712s-.1-3.658.319-4.712A2.676,2.676,0,0,1,3.127,1.694c1.054-.415,3.546-.319,4.712-.319s3.658-.1,4.712.319a2.676,2.676,0,0,1,1.517,1.517c.415,1.054.319,3.546.319,4.712s.1,3.658-.319,4.712" transform="translate(0.175 0.075)" fill="#fff"/>
</svg>
