<svg xmlns="http://www.w3.org/2000/svg" width="110.276" height="66.458" viewBox="0 0 110.276 66.458">
  <g id="logo" transform="translate(0 143.874)">
    <g id="g12" transform="translate(0 -143.874)">
      <path id="path14" d="M9.2-139.488H105.8a4.822,4.822,0,0,1,4.809,4.808v39.318a4.822,4.822,0,0,1-4.809,4.808H9.2a4.822,4.822,0,0,1-4.808-4.808v-39.318A4.822,4.822,0,0,1,9.2-139.488h0" transform="translate(-2.361 141.514)" fill="#006838" fill-rule="evenodd"/>
      <path id="path16" d="M103.441-143.874H6.835A6.843,6.843,0,0,0,0-137.04v39.318a6.843,6.843,0,0,0,6.835,6.835h96.605a6.843,6.843,0,0,0,6.836-6.835V-137.04a6.843,6.843,0,0,0-6.836-6.834m0,48.935H6.835a2.786,2.786,0,0,1-2.782-2.782V-137.04a2.785,2.785,0,0,1,2.782-2.782h96.605a2.786,2.786,0,0,1,2.783,2.782v16.9H34V-133.1H26.22v12.956H19.679V-133.1H11.9v31.235h7.778v-12.068H26.22v12.068H34v-12.068h72.224v16.206a2.786,2.786,0,0,1-2.783,2.782" transform="translate(0 143.874)" fill="#fcd006" fill-rule="evenodd"/>
      <path id="path18" d="M85.424-121.21a6.05,6.05,0,0,0-4.269,1.442,5.213,5.213,0,0,0-1.556,4,5.249,5.249,0,0,0,1.545,4.006,6.047,6.047,0,0,0,4.28,1.439,6.074,6.074,0,0,0,4.287-1.446,5.209,5.209,0,0,0,1.561-4,5.206,5.206,0,0,0-1.561-4,6.085,6.085,0,0,0-4.287-1.442m1.431,7.428a1.669,1.669,0,0,1-1.431.671,1.651,1.651,0,0,1-1.416-.669,3.322,3.322,0,0,1-.51-1.992A3.3,3.3,0,0,1,84-117.752a1.642,1.642,0,0,1,1.419-.663,1.693,1.693,0,0,1,1.432.669,3.255,3.255,0,0,1,.518,1.975,3.3,3.3,0,0,1-.518,1.99" transform="translate(-42.831 131.679)" fill="#fcd006" fill-rule="evenodd"/>
      <path id="path20" d="M118.657-120.439h-.12l-.026.117-1.38,6.1-1.193-6.1-.024-.122h-3.867l-.023.122-1.156,6.086-1.367-6.092-.026-.117h-3.9l.063.2,3.173,9.891.034.1h3.776l.027-.117,1.365-5.875,1.289,5.874.027.118h3.846l.033-.1,3.166-9.891.062-.2h-3.777" transform="translate(-56.808 131.264)" fill="#fcd006" fill-rule="evenodd"/>
      <path id="path22" d="M154.2-111.612a3.291,3.291,0,0,1-.123-1.012v-3.748a9.667,9.667,0,0,0-.164-2.1,2.886,2.886,0,0,0-.569-1.164,3.465,3.465,0,0,0-1.6-1.013,8.008,8.008,0,0,0-2.453-.327,6.6,6.6,0,0,0-3.628.845,3.59,3.59,0,0,0-1.566,2.6l-.026.173h3.53l.025-.122a1.067,1.067,0,0,1,.48-.731,2.033,2.033,0,0,1,1.106-.259,1.816,1.816,0,0,1,.96.2.579.579,0,0,1,.28.525v.235c0,.094-.121.418-1.686.653-.769.12-1.445.24-2.009.357a4.072,4.072,0,0,0-2.214,1.123,3.011,3.011,0,0,0-.743,2.1,2.827,2.827,0,0,0,.954,2.237,3.746,3.746,0,0,0,2.545.824,5.132,5.132,0,0,0,1.885-.338,5.059,5.059,0,0,0,1.41-.862c.014.089.026.172.042.266.032.185.073.363.1.5l.027.115h3.847v-.622l-.09-.039a.649.649,0,0,1-.319-.415m-3.753-3.493v.9a1.419,1.419,0,0,1-.514,1.135,2.068,2.068,0,0,1-1.367.441,1.2,1.2,0,0,1-.836-.283.938.938,0,0,1-.3-.738.762.762,0,0,1,.217-.576,1.878,1.878,0,0,1,.822-.381c.127-.031.361-.082.739-.152a6.364,6.364,0,0,0,1.243-.346" transform="translate(-77.373 131.552)" fill="#fcd006" fill-rule="evenodd"/>
      <path id="path24" d="M176.2-120.468a3.586,3.586,0,0,0-1.177,1.1v-1.359h-3.666v10.191h3.787v-3.473a14.733,14.733,0,0,1,.083-1.848,2.11,2.11,0,0,1,.259-.829,1.753,1.753,0,0,1,.774-.63,3.334,3.334,0,0,1,1.275-.211q.193,0,.41.014c.131.009.27.022.442.041l.166.018v-3.523l-.152,0a4.608,4.608,0,0,0-2.2.508" transform="translate(-92.204 131.554)" fill="#fcd006" fill-rule="evenodd"/>
      <path id="path26" d="M200.789-128.044h-3.637v4.482a3.566,3.566,0,0,0-1.141-.862,4.48,4.48,0,0,0-1.942-.407,4.194,4.194,0,0,0-3.331,1.527,5.85,5.85,0,0,0-1.292,3.911,5.667,5.667,0,0,0,1.288,3.854,4.288,4.288,0,0,0,3.374,1.483,4.159,4.159,0,0,0,1.874-.4,3.788,3.788,0,0,0,1.149-.908v1.028h3.809v-13.7h-.15m-3.6,8.505a3.265,3.265,0,0,1-.49,1.954,1.622,1.622,0,0,1-1.4.634,1.665,1.665,0,0,1-1.425-.645,3.193,3.193,0,0,1-.5-1.943,2.882,2.882,0,0,1,.519-1.82,1.661,1.661,0,0,1,1.371-.643,1.693,1.693,0,0,1,1.419.626,2.9,2.9,0,0,1,.511,1.836" transform="translate(-101.937 135.356)" fill="#fcd006" fill-rule="evenodd"/>
      <path id="path28" d="M90.641-65.89a3.062,3.062,0,0,1-.128-.992v-3.691a9.036,9.036,0,0,0-.172-2.07,2.781,2.781,0,0,0-.6-1.148,3.646,3.646,0,0,0-1.673-1,8.842,8.842,0,0,0-2.561-.321,7.244,7.244,0,0,0-3.787.83,3.517,3.517,0,0,0-1.637,2.56l-.027.173h3.679l.025-.119a1.051,1.051,0,0,1,.5-.718,2.244,2.244,0,0,1,1.164-.257,2.008,2.008,0,0,1,1.01.2.561.561,0,0,1,.293.513v.231c0,.091-.128.408-1.769.64-.8.119-1.511.237-2.1.352a4.341,4.341,0,0,0-2.311,1.1,2.87,2.87,0,0,0-.777,2.071,2.716,2.716,0,0,0,1,2.207,4.064,4.064,0,0,0,2.654.809,5.662,5.662,0,0,0,1.966-.331,5.413,5.413,0,0,0,1.483-.858q.022.13.047.269c.033.182.075.358.109.491l.028.114h4.01v-.619l-.094-.038a.649.649,0,0,1-.335-.409m-3.91-3.438v.889a1.359,1.359,0,0,1-.538,1.113,2.256,2.256,0,0,1-1.437.437,1.326,1.326,0,0,1-.882-.281.894.894,0,0,1-.317-.723.723.723,0,0,1,.226-.562,2.026,2.026,0,0,1,.864-.377c.134-.031.378-.082.773-.15a6.821,6.821,0,0,0,1.311-.345" transform="translate(-42.925 106.873)" fill="#fcd006" fill-rule="evenodd"/>
      <path id="path30" d="M114.816-75.109a4.848,4.848,0,0,0-2.054.4,3.7,3.7,0,0,0-1.2.9v-1.065h-3.884v10.041h3.947V-70.19a2.756,2.756,0,0,1,.412-1.695,1.551,1.551,0,0,1,1.291-.5,1.263,1.263,0,0,1,1.1.408,4.2,4.2,0,0,1,.3,2.106v5.05H118.7v-6.486a3.921,3.921,0,0,0-.928-2.9,4.14,4.14,0,0,0-2.953-.9" transform="translate(-57.941 106.873)" fill="#fcd006" fill-rule="evenodd"/>
      <path id="path32" d="M143.374-75.109a4.846,4.846,0,0,0-2.055.4,3.721,3.721,0,0,0-1.2.9v-1.065h-3.884v10.041h3.947V-70.19a2.757,2.757,0,0,1,.411-1.695,1.553,1.553,0,0,1,1.292-.5,1.261,1.261,0,0,1,1.1.408,4.194,4.194,0,0,1,.3,2.106v5.05h3.968v-6.486a3.922,3.922,0,0,0-.928-2.9,4.142,4.142,0,0,0-2.953-.9" transform="translate(-73.307 106.873)" fill="#fcd006" fill-rule="evenodd"/>
      <path id="path34" d="M174.727-65.481a.652.652,0,0,1-.336-.409,3.063,3.063,0,0,1-.127-.992v-3.691a9.012,9.012,0,0,0-.172-2.07,2.786,2.786,0,0,0-.6-1.148,3.643,3.643,0,0,0-1.673-1,8.835,8.835,0,0,0-2.561-.321,7.238,7.238,0,0,0-3.786.83,3.517,3.517,0,0,0-1.638,2.56l-.028.173h3.68l.025-.119a1.049,1.049,0,0,1,.5-.718,2.243,2.243,0,0,1,1.163-.257,2.009,2.009,0,0,1,1.011.2.56.56,0,0,1,.292.513v.231c0,.091-.128.408-1.768.64-.8.119-1.511.237-2.1.352a4.342,4.342,0,0,0-2.311,1.1,2.872,2.872,0,0,0-.777,2.071,2.715,2.715,0,0,0,1,2.207,4.062,4.062,0,0,0,2.653.809,5.669,5.669,0,0,0,1.967-.331,5.4,5.4,0,0,0,1.484-.859c.015.09.029.176.046.27.033.182.075.358.109.491l.029.114h4.009v-.619l-.092-.038m-4.247-3.847v.889a1.356,1.356,0,0,1-.538,1.113,2.254,2.254,0,0,1-1.437.437,1.325,1.325,0,0,1-.881-.281.893.893,0,0,1-.318-.723.722.722,0,0,1,.226-.562,2.026,2.026,0,0,1,.863-.377c.133-.031.379-.082.775-.15a6.832,6.832,0,0,0,1.309-.345" transform="translate(-87.99 106.873)" fill="#fcd006" fill-rule="evenodd"/>
      <path id="path36" d="M192.629-74.452h9.722v10.037h-9.722V-74.452" transform="translate(-103.651 106.52)" fill="#fcd006" fill-rule="evenodd"/>
      <path id="path38" d="M9.2-139.488H105.8a4.822,4.822,0,0,1,4.809,4.808v39.318a4.822,4.822,0,0,1-4.809,4.808H9.2a4.822,4.822,0,0,1-4.808-4.808v-39.318A4.822,4.822,0,0,1,9.2-139.488h0" transform="translate(-2.361 141.514)" fill="#006838" fill-rule="evenodd"/>
      <path id="path40" d="M103.441-143.874H6.835A6.843,6.843,0,0,0,0-137.04v39.318a6.843,6.843,0,0,0,6.835,6.835h96.605a6.843,6.843,0,0,0,6.836-6.835V-137.04a6.843,6.843,0,0,0-6.836-6.834m0,48.935H6.835a2.786,2.786,0,0,1-2.782-2.782V-137.04a2.785,2.785,0,0,1,2.782-2.782h96.605a2.786,2.786,0,0,1,2.783,2.782v16.9H34V-133.1H26.22v12.956H19.679V-133.1H11.9v31.235h7.778v-12.068H26.22v12.068H34v-12.068h72.224v16.206a2.786,2.786,0,0,1-2.783,2.782" transform="translate(0 143.874)" fill="#fcd006" fill-rule="evenodd"/>
      <path id="path42" d="M85.424-121.21a6.05,6.05,0,0,0-4.269,1.442,5.213,5.213,0,0,0-1.556,4,5.249,5.249,0,0,0,1.545,4.006,6.047,6.047,0,0,0,4.28,1.439,6.074,6.074,0,0,0,4.287-1.446,5.209,5.209,0,0,0,1.561-4,5.206,5.206,0,0,0-1.561-4,6.085,6.085,0,0,0-4.287-1.442m1.431,7.428a1.669,1.669,0,0,1-1.431.671,1.651,1.651,0,0,1-1.416-.669,3.322,3.322,0,0,1-.51-1.992A3.3,3.3,0,0,1,84-117.752a1.642,1.642,0,0,1,1.419-.663,1.693,1.693,0,0,1,1.432.669,3.255,3.255,0,0,1,.518,1.975,3.3,3.3,0,0,1-.518,1.99" transform="translate(-42.831 131.679)" fill="#fcd006" fill-rule="evenodd"/>
      <path id="path44" d="M118.657-120.439h-.12l-.026.117-1.38,6.1-1.193-6.1-.024-.122h-3.867l-.023.122-1.156,6.086-1.367-6.092-.026-.117h-3.9l.063.2,3.173,9.891.034.1h3.776l.027-.117,1.365-5.875,1.289,5.874.027.118h3.846l.033-.1,3.166-9.891.062-.2h-3.777" transform="translate(-56.808 131.264)" fill="#fcd006" fill-rule="evenodd"/>
      <path id="path46" d="M154.2-111.612a3.291,3.291,0,0,1-.123-1.012v-3.748a9.667,9.667,0,0,0-.164-2.1,2.886,2.886,0,0,0-.569-1.164,3.465,3.465,0,0,0-1.6-1.013,8.008,8.008,0,0,0-2.453-.327,6.6,6.6,0,0,0-3.628.845,3.59,3.59,0,0,0-1.566,2.6l-.026.173h3.53l.025-.122a1.067,1.067,0,0,1,.48-.731,2.033,2.033,0,0,1,1.106-.259,1.816,1.816,0,0,1,.96.2.579.579,0,0,1,.28.525v.235c0,.094-.121.418-1.686.653-.769.12-1.445.24-2.009.357a4.072,4.072,0,0,0-2.214,1.123,3.011,3.011,0,0,0-.743,2.1,2.827,2.827,0,0,0,.954,2.237,3.746,3.746,0,0,0,2.545.824,5.132,5.132,0,0,0,1.885-.338,5.059,5.059,0,0,0,1.41-.862c.014.089.026.172.042.266.032.185.073.363.1.5l.027.115h3.847v-.622l-.09-.039a.649.649,0,0,1-.319-.415m-3.753-3.493v.9a1.419,1.419,0,0,1-.514,1.135,2.068,2.068,0,0,1-1.367.441,1.2,1.2,0,0,1-.836-.283.938.938,0,0,1-.3-.738.762.762,0,0,1,.217-.576,1.878,1.878,0,0,1,.822-.381c.127-.031.361-.082.739-.152a6.364,6.364,0,0,0,1.243-.346" transform="translate(-77.373 131.552)" fill="#fcd006" fill-rule="evenodd"/>
      <path id="path48" d="M176.2-120.468a3.586,3.586,0,0,0-1.177,1.1v-1.359h-3.666v10.191h3.787v-3.473a14.733,14.733,0,0,1,.083-1.848,2.11,2.11,0,0,1,.259-.829,1.753,1.753,0,0,1,.774-.63,3.334,3.334,0,0,1,1.275-.211q.193,0,.41.014c.131.009.27.022.442.041l.166.018v-3.523l-.152,0a4.608,4.608,0,0,0-2.2.508" transform="translate(-92.204 131.554)" fill="#fcd006" fill-rule="evenodd"/>
      <path id="path50" d="M200.789-128.044h-3.637v4.482a3.566,3.566,0,0,0-1.141-.862,4.48,4.48,0,0,0-1.942-.407,4.194,4.194,0,0,0-3.331,1.527,5.85,5.85,0,0,0-1.292,3.911,5.667,5.667,0,0,0,1.288,3.854,4.288,4.288,0,0,0,3.374,1.483,4.159,4.159,0,0,0,1.874-.4,3.788,3.788,0,0,0,1.149-.908v1.028h3.809v-13.7h-.15m-3.6,8.505a3.265,3.265,0,0,1-.49,1.954,1.622,1.622,0,0,1-1.4.634,1.665,1.665,0,0,1-1.425-.645,3.193,3.193,0,0,1-.5-1.943,2.882,2.882,0,0,1,.519-1.82,1.661,1.661,0,0,1,1.371-.643,1.693,1.693,0,0,1,1.419.626,2.9,2.9,0,0,1,.511,1.836" transform="translate(-101.937 135.356)" fill="#fcd006" fill-rule="evenodd"/>
      <path id="path52" d="M90.641-65.89a3.062,3.062,0,0,1-.128-.992v-3.691a9.036,9.036,0,0,0-.172-2.07,2.781,2.781,0,0,0-.6-1.148,3.646,3.646,0,0,0-1.673-1,8.842,8.842,0,0,0-2.561-.321,7.244,7.244,0,0,0-3.787.83,3.517,3.517,0,0,0-1.637,2.56l-.027.173h3.679l.025-.119a1.051,1.051,0,0,1,.5-.718,2.244,2.244,0,0,1,1.164-.257,2.008,2.008,0,0,1,1.01.2.561.561,0,0,1,.293.513v.231c0,.091-.128.408-1.769.64-.8.119-1.511.237-2.1.352a4.341,4.341,0,0,0-2.311,1.1,2.87,2.87,0,0,0-.777,2.071,2.716,2.716,0,0,0,1,2.207,4.064,4.064,0,0,0,2.654.809,5.662,5.662,0,0,0,1.966-.331,5.413,5.413,0,0,0,1.483-.858q.022.13.047.269c.033.182.075.358.109.491l.028.114h4.01v-.619l-.094-.038a.649.649,0,0,1-.335-.409m-3.91-3.438v.889a1.359,1.359,0,0,1-.538,1.113,2.256,2.256,0,0,1-1.437.437,1.326,1.326,0,0,1-.882-.281.894.894,0,0,1-.317-.723.723.723,0,0,1,.226-.562,2.026,2.026,0,0,1,.864-.377c.134-.031.378-.082.773-.15a6.821,6.821,0,0,0,1.311-.345" transform="translate(-42.925 106.873)" fill="#fcd006" fill-rule="evenodd"/>
      <path id="path54" d="M114.816-75.109a4.848,4.848,0,0,0-2.054.4,3.7,3.7,0,0,0-1.2.9v-1.065h-3.884v10.041h3.947V-70.19a2.756,2.756,0,0,1,.412-1.695,1.551,1.551,0,0,1,1.291-.5,1.263,1.263,0,0,1,1.1.408,4.2,4.2,0,0,1,.3,2.106v5.05H118.7v-6.486a3.921,3.921,0,0,0-.928-2.9,4.14,4.14,0,0,0-2.953-.9" transform="translate(-57.941 106.873)" fill="#fcd006" fill-rule="evenodd"/>
      <path id="path56" d="M143.374-75.109a4.846,4.846,0,0,0-2.055.4,3.721,3.721,0,0,0-1.2.9v-1.065h-3.884v10.041h3.947V-70.19a2.757,2.757,0,0,1,.411-1.695,1.553,1.553,0,0,1,1.292-.5,1.261,1.261,0,0,1,1.1.408,4.194,4.194,0,0,1,.3,2.106v5.05h3.968v-6.486a3.922,3.922,0,0,0-.928-2.9,4.142,4.142,0,0,0-2.953-.9" transform="translate(-73.307 106.873)" fill="#fcd006" fill-rule="evenodd"/>
      <path id="path58" d="M174.727-65.481a.652.652,0,0,1-.336-.409,3.063,3.063,0,0,1-.127-.992v-3.691a9.012,9.012,0,0,0-.172-2.07,2.786,2.786,0,0,0-.6-1.148,3.643,3.643,0,0,0-1.673-1,8.835,8.835,0,0,0-2.561-.321,7.238,7.238,0,0,0-3.786.83,3.517,3.517,0,0,0-1.638,2.56l-.028.173h3.68l.025-.119a1.049,1.049,0,0,1,.5-.718,2.243,2.243,0,0,1,1.163-.257,2.009,2.009,0,0,1,1.011.2.56.56,0,0,1,.292.513v.231c0,.091-.128.408-1.768.64-.8.119-1.511.237-2.1.352a4.342,4.342,0,0,0-2.311,1.1,2.872,2.872,0,0,0-.777,2.071,2.715,2.715,0,0,0,1,2.207,4.062,4.062,0,0,0,2.653.809,5.669,5.669,0,0,0,1.967-.331,5.4,5.4,0,0,0,1.484-.859c.015.09.029.176.046.27.033.182.075.358.109.491l.029.114h4.009v-.619l-.092-.038m-4.247-3.847v.889a1.356,1.356,0,0,1-.538,1.113,2.254,2.254,0,0,1-1.437.437,1.325,1.325,0,0,1-.881-.281.893.893,0,0,1-.318-.723.722.722,0,0,1,.226-.562,2.026,2.026,0,0,1,.863-.377c.133-.031.379-.082.775-.15a6.832,6.832,0,0,0,1.309-.345" transform="translate(-87.99 106.873)" fill="#fcd006" fill-rule="evenodd"/>
      <path id="path60" d="M192.629-74.452h9.722v10.037h-9.722V-74.452" transform="translate(-103.651 106.52)" fill="#fcd006" fill-rule="evenodd"/>
      <path id="path62" d="M2.009-14.576H3.984a1.545,1.545,0,0,0,.991-.269.987.987,0,0,0,.33-.813,1.007,1.007,0,0,0-.313-.807,1.414,1.414,0,0,0-.94-.269H2.009Zm-1.7-3.562H4.417a2.749,2.749,0,0,1,1.878.624,2.079,2.079,0,0,1,.713,1.645,1.937,1.937,0,0,1-.793,1.72,2.223,2.223,0,0,1-.477.245,1.906,1.906,0,0,1,.272.133,1.552,1.552,0,0,1,.727,1.4l.039,1.337a1.674,1.674,0,0,0,.083.566.543.543,0,0,0,.277.267v.216H5.254a1.906,1.906,0,0,1-.117-.547,8.384,8.384,0,0,1-.056-.9l-.011-.755a.937.937,0,0,0-.325-.782A1.78,1.78,0,0,0,3.707-13.2h-1.7v3.224H.305v-8.156" transform="translate(-0.164 76.217)" fill="#006838"/>
      <path id="path64" d="M20.354-11.34a1.656,1.656,0,0,0-.289-.849,1.11,1.11,0,0,0-.949-.405,1.066,1.066,0,0,0-.938.471,2.084,2.084,0,0,0-.288.783Zm-1.215,3.8a2.676,2.676,0,0,1-2.122-.849,3.549,3.549,0,0,1-.746-2.419,3.2,3.2,0,0,1,.76-2.267,2.736,2.736,0,0,1,2.108-.818,2.7,2.7,0,0,1,2.128.835,3.449,3.449,0,0,1,.747,2.377,1.339,1.339,0,0,1-.028.36H17.874a2.085,2.085,0,0,0,.316,1.071,1.3,1.3,0,0,0,1.11.444,1.184,1.184,0,0,0,.669-.2.8.8,0,0,0,.369-.494h1.62a2.307,2.307,0,0,1-.951,1.442,3.179,3.179,0,0,1-1.867.522" transform="translate(-8.755 73.936)" fill="#006838"/>
      <path id="path66" d="M34.362-9.931v-.693a2.574,2.574,0,0,1-.732.249l-.588.112a1.209,1.209,0,0,0-.633.286.7.7,0,0,0-.216.524.79.79,0,0,0,.194.566.713.713,0,0,0,.544.2A1.516,1.516,0,0,0,34.15-9.22a.864.864,0,0,0,.15-.31A1.4,1.4,0,0,0,34.362-9.931ZM32.447-7.545a1.89,1.89,0,0,1-1.348-.48,1.652,1.652,0,0,1-.51-1.262,1.869,1.869,0,0,1,.46-1.324,2.192,2.192,0,0,1,1.343-.624l1.049-.144a2.247,2.247,0,0,0,.683-.189.376.376,0,0,0,.18-.2.556.556,0,0,0,.047-.294.536.536,0,0,0-.261-.4,1.468,1.468,0,0,0-.783-.172,1.046,1.046,0,0,0-.71.222.835.835,0,0,0-.272.627H30.8a2.023,2.023,0,0,1,.721-1.587,3.14,3.14,0,0,1,1.97-.527,2.967,2.967,0,0,1,1.779.475,1.519,1.519,0,0,1,.652,1.3v3.377a1.7,1.7,0,0,0,.066.57.5.5,0,0,0,.266.258V-7.7h-1.72v-.006a3.926,3.926,0,0,1-.139-.715l-.006-.012a2.422,2.422,0,0,1-1.942.888" transform="translate(-16.459 73.936)" fill="#006838"/>
      <path id="path68" d="M45.255-18.137h1.592v8.156H45.255v-8.156" transform="translate(-24.351 76.217)" fill="#006838"/>
      <path id="path70" d="M59.1-9.981v-8.156h6v1.448h-4.3v1.731H64.8v1.4h-3.99v2.125H65.3v1.449H59.1" transform="translate(-31.803 76.217)" fill="#006838"/>
      <path id="path72" d="M77.7-11.928a.66.66,0,0,0-.289-.56,1.269,1.269,0,0,0-.766-.211,1.377,1.377,0,0,0-.719.158.492.492,0,0,0-.258.44q0,.2.294.344a5.462,5.462,0,0,0,1.027.306,5.369,5.369,0,0,1,1.959.716,1.455,1.455,0,0,1,.5,1.221,1.7,1.7,0,0,1-.719,1.429,3.075,3.075,0,0,1-1.9.541,3.681,3.681,0,0,1-2.145-.532,1.91,1.91,0,0,1-.8-1.554H75.5a.786.786,0,0,0,.369.652,1.7,1.7,0,0,0,.958.236,1.434,1.434,0,0,0,.747-.164.51.51,0,0,0,.269-.458.414.414,0,0,0-.26-.35A4.061,4.061,0,0,0,76.664-10a6.032,6.032,0,0,1-2.048-.727,1.354,1.354,0,0,1-.515-1.171,1.79,1.79,0,0,1,.668-1.451,2.678,2.678,0,0,1,1.761-.552,3.335,3.335,0,0,1,1.986.541,1.677,1.677,0,0,1,.754,1.429H77.7" transform="translate(-39.753 73.936)" fill="#006838"/>
      <path id="path74" d="M90.225-9.373q-.4.033-.982.033a1.922,1.922,0,0,1-1.213-.3,1.21,1.21,0,0,1-.369-.99v-3.7h-.838v-1.115h.838v-1.626h1.592v1.626h.971v1.115h-.971V-10.9a.285.285,0,0,0,.125.278,1.3,1.3,0,0,0,.519.066h.327v1.182" transform="translate(-46.718 75.642)" fill="#006838"/>
      <path id="path76" d="M99.5-9.931v-.693a2.574,2.574,0,0,1-.732.249l-.588.112a1.21,1.21,0,0,0-.633.286.7.7,0,0,0-.216.524.789.789,0,0,0,.194.566.713.713,0,0,0,.544.2,1.517,1.517,0,0,0,1.221-.538.867.867,0,0,0,.15-.31,1.409,1.409,0,0,0,.061-.4ZM97.59-7.545a1.89,1.89,0,0,1-1.348-.48,1.651,1.651,0,0,1-.51-1.262,1.869,1.869,0,0,1,.461-1.324,2.192,2.192,0,0,1,1.343-.624l1.048-.144a2.246,2.246,0,0,0,.683-.189.377.377,0,0,0,.18-.2.561.561,0,0,0,.047-.294.538.538,0,0,0-.261-.4,1.466,1.466,0,0,0-.782-.172,1.047,1.047,0,0,0-.71.222.836.836,0,0,0-.272.627H95.942a2.022,2.022,0,0,1,.721-1.587,3.141,3.141,0,0,1,1.97-.527,2.966,2.966,0,0,1,1.778.475,1.518,1.518,0,0,1,.652,1.3v3.377a1.692,1.692,0,0,0,.067.57.5.5,0,0,0,.266.258V-7.7h-1.72v-.006a3.936,3.936,0,0,1-.139-.715l-.006-.012a2.422,2.422,0,0,1-1.942.888" transform="translate(-51.511 73.936)" fill="#006838"/>
      <path id="path78" d="M112.345-9.373q-.4.033-.982.033a1.921,1.921,0,0,1-1.213-.3,1.209,1.209,0,0,1-.369-.99v-3.7h-.838v-1.115h.838v-1.626h1.592v1.626h.971v1.115h-.971V-10.9a.286.286,0,0,0,.125.278,1.3,1.3,0,0,0,.519.066h.327v1.182" transform="translate(-58.621 75.642)" fill="#006838"/>
      <path id="path80" d="M122.036-11.34a1.654,1.654,0,0,0-.288-.849,1.111,1.111,0,0,0-.949-.405,1.065,1.065,0,0,0-.937.471,2.085,2.085,0,0,0-.288.783Zm-1.215,3.8a2.676,2.676,0,0,1-2.122-.849,3.549,3.549,0,0,1-.746-2.419,3.2,3.2,0,0,1,.76-2.267,2.737,2.737,0,0,1,2.108-.818,2.7,2.7,0,0,1,2.128.835,3.449,3.449,0,0,1,.747,2.377,1.341,1.341,0,0,1-.028.36h-4.111a2.082,2.082,0,0,0,.316,1.071,1.3,1.3,0,0,0,1.11.444,1.184,1.184,0,0,0,.669-.2.8.8,0,0,0,.369-.494h1.62a2.306,2.306,0,0,1-.952,1.442,3.176,3.176,0,0,1-1.867.522" transform="translate(-63.468 73.936)" fill="#006838"/>
      <path id="path82" d="M143.709-15.949a1.207,1.207,0,0,0-.51-.924,2.007,2.007,0,0,0-1.215-.341,1.613,1.613,0,0,0-1.016.286.955.955,0,0,0-.365.8.618.618,0,0,0,.383.566,7.685,7.685,0,0,0,1.6.472,5.853,5.853,0,0,1,2.38.921,2.077,2.077,0,0,1,.6,1.66,2.154,2.154,0,0,1-.9,1.822,4,4,0,0,1-2.446.674,3.7,3.7,0,0,1-2.419-.716,2.659,2.659,0,0,1-.932-2.036h1.643a1.272,1.272,0,0,0,.472,1,1.953,1.953,0,0,0,1.237.349,2.564,2.564,0,0,0,1.272-.264.81.81,0,0,0,.458-.729.751.751,0,0,0-.33-.677,4.68,4.68,0,0,0-1.375-.449,7.257,7.257,0,0,1-2.595-.938,1.842,1.842,0,0,1-.65-1.559,2.3,2.3,0,0,1,.86-1.884,3.584,3.584,0,0,1,2.324-.7,3.351,3.351,0,0,1,2.23.721,2.7,2.7,0,0,1,.955,1.948h-1.659" transform="translate(-74.722 76.476)" fill="#006838"/>
      <path id="path84" d="M158.962-11.34a1.657,1.657,0,0,0-.288-.849,1.111,1.111,0,0,0-.949-.405,1.065,1.065,0,0,0-.937.471,2.1,2.1,0,0,0-.289.783Zm-1.215,3.8a2.677,2.677,0,0,1-2.122-.849,3.55,3.55,0,0,1-.746-2.419,3.2,3.2,0,0,1,.76-2.267,2.736,2.736,0,0,1,2.108-.818,2.7,2.7,0,0,1,2.128.835,3.449,3.449,0,0,1,.746,2.377,1.329,1.329,0,0,1-.028.36h-4.111a2.077,2.077,0,0,0,.316,1.071,1.3,1.3,0,0,0,1.11.444,1.182,1.182,0,0,0,.668-.2.8.8,0,0,0,.37-.494h1.62a2.308,2.308,0,0,1-.952,1.442,3.18,3.18,0,0,1-1.867.522" transform="translate(-83.338 73.936)" fill="#006838"/>
      <path id="path86" d="M169.322-13.737h1.514v1.082a3.09,3.09,0,0,1,.189-.344,1.662,1.662,0,0,1,1.448-.9l.36.006v1.626a4.426,4.426,0,0,0-.477-.022,1.471,1.471,0,0,0-1.085.36,1.494,1.494,0,0,0-.358,1.093V-7.7h-1.592v-6.037" transform="translate(-91.11 73.936)" fill="#006838"/>
      <path id="path88" d="M178.016-13.549h1.758l1.285,4.5h.006l1.3-4.5h1.676l-2.181,6.037H180.2l-2.181-6.037" transform="translate(-95.787 73.748)" fill="#006838"/>
      <path id="path90" d="M192.837-16.089h1.593v6.037h-1.593Zm-.017-2.181h1.62v1.476h-1.62V-18.27" transform="translate(-103.754 76.289)" fill="#006838"/>
      <path id="path92" d="M204.122-9.936a2.631,2.631,0,0,1-.838,1.76,2.715,2.715,0,0,1-1.865.632A2.724,2.724,0,0,1,199.3-8.36a3.319,3.319,0,0,1-.746-2.325,3.4,3.4,0,0,1,.774-2.344,2.659,2.659,0,0,1,2.088-.868,2.814,2.814,0,0,1,1.909.644,2.286,2.286,0,0,1,.793,1.692H202.5a1.023,1.023,0,0,0-.318-.726,1.075,1.075,0,0,0-.764-.278,1.024,1.024,0,0,0-.913.48,2.575,2.575,0,0,0-.313,1.4,2.468,2.468,0,0,0,.313,1.368,1.03,1.03,0,0,0,.913.469,1,1,0,0,0,.733-.3,1.252,1.252,0,0,0,.349-.788h1.62" transform="translate(-106.84 73.936)" fill="#006838"/>
      <path id="path94" d="M216.539-11.34a1.657,1.657,0,0,0-.288-.849,1.112,1.112,0,0,0-.949-.405,1.067,1.067,0,0,0-.938.471,2.1,2.1,0,0,0-.288.783Zm-1.215,3.8a2.677,2.677,0,0,1-2.122-.849,3.55,3.55,0,0,1-.746-2.419,3.2,3.2,0,0,1,.759-2.267,2.738,2.738,0,0,1,2.109-.818,2.7,2.7,0,0,1,2.128.835,3.449,3.449,0,0,1,.746,2.377,1.329,1.329,0,0,1-.028.36h-4.112a2.083,2.083,0,0,0,.317,1.071,1.3,1.3,0,0,0,1.11.444,1.183,1.183,0,0,0,.668-.2.8.8,0,0,0,.369-.494h1.62a2.3,2.3,0,0,1-.952,1.442,3.177,3.177,0,0,1-1.867.522" transform="translate(-114.319 73.936)" fill="#006838"/>
      <path id="path96" d="M230.121-11.928a.659.659,0,0,0-.289-.56,1.268,1.268,0,0,0-.766-.211,1.377,1.377,0,0,0-.719.158.492.492,0,0,0-.258.44c0,.134.1.248.294.344a5.455,5.455,0,0,0,1.027.306,5.366,5.366,0,0,1,1.959.716,1.456,1.456,0,0,1,.5,1.221,1.7,1.7,0,0,1-.719,1.429,3.076,3.076,0,0,1-1.9.541,3.686,3.686,0,0,1-2.146-.532,1.91,1.91,0,0,1-.8-1.554h1.62a.785.785,0,0,0,.37.652,1.7,1.7,0,0,0,.957.236A1.434,1.434,0,0,0,230-8.907a.509.509,0,0,0,.269-.458.414.414,0,0,0-.261-.35,4.047,4.047,0,0,0-.916-.283,6.03,6.03,0,0,1-2.047-.727,1.353,1.353,0,0,1-.516-1.171,1.789,1.789,0,0,1,.668-1.451,2.677,2.677,0,0,1,1.761-.552,3.334,3.334,0,0,1,1.986.541,1.677,1.677,0,0,1,.754,1.429h-1.575" transform="translate(-121.77 73.936)" fill="#006838"/>
    </g>
  </g>
</svg>
