<svg xmlns="http://www.w3.org/2000/svg" width="14.78" height="14.872" viewBox="0 0 14.78 14.872">
  <path id="logo-linkedin" d="M13.686,14.872H1.091A1.08,1.08,0,0,1,0,13.807V1.065A1.08,1.08,0,0,1,1.092,0h12.6A1.08,1.08,0,0,1,14.78,1.065V13.807A1.08,1.08,0,0,1,13.686,14.872ZM2.249,5.734V12.45H4.48V5.734Zm5.7,0H5.716c.029.616,0,6.657,0,6.716H7.948V8.7a1.485,1.485,0,0,1,.074-.544,1.394,1.394,0,0,1,.4-.559,1.146,1.146,0,0,1,.743-.258.983.983,0,0,1,.868.421,1.95,1.95,0,0,1,.263,1.1v3.592h2.232V8.6c0-1.889-.961-3.023-2.569-3.023A2.23,2.23,0,0,0,7.948,6.684ZM3.38,2.5a1.163,1.163,0,1,0-.03,2.32h.014A1.164,1.164,0,1,0,3.38,2.5Z" fill="#fff"/>
</svg>
